<svg width="24" height="24" viewBox="0 0 24 24" fill="none" xmlns="http://www.w3.org/2000/svg">
<g clip-path="url(#clip0_318_49906)">
<path d="M20.467 8.6941L20.713 8.1281C21.1455 7.12683 21.9376 6.32402 22.933 5.8781L23.692 5.5391C23.7841 5.49675 23.8621 5.42887 23.9168 5.34353C23.9714 5.25819 24.0005 5.15896 24.0005 5.0576C24.0005 4.95625 23.9714 4.85702 23.9168 4.77168C23.8621 4.68633 23.7841 4.61846 23.692 4.5761L22.975 4.2571C21.9546 3.79848 21.1489 2.96599 20.724 1.9311L20.471 1.3201C20.4338 1.22546 20.369 1.1442 20.285 1.08693C20.201 1.02966 20.1017 0.999023 20 0.999023C19.8983 0.999023 19.799 1.02966 19.715 1.08693C19.631 1.1442 19.5662 1.22546 19.529 1.3201L19.276 1.9301C18.8515 2.96518 18.0462 3.79804 17.026 4.2571L16.308 4.5771C16.2162 4.61958 16.1385 4.68745 16.084 4.77268C16.0295 4.85791 16.0006 4.95695 16.0006 5.0581C16.0006 5.15926 16.0295 5.2583 16.084 5.34353C16.1385 5.42876 16.2162 5.49662 16.308 5.5391L17.068 5.8771C18.0632 6.32347 18.8549 7.12663 19.287 8.1281L19.533 8.6941C19.713 9.1081 20.286 9.1081 20.467 8.6941ZM2 4.0001C2 3.73489 2.10536 3.48053 2.29289 3.293C2.48043 3.10546 2.73478 3.0001 3 3.0001H14V5.0001H4V19.0001H20V11.0001H22V20.0001C22 20.2653 21.8946 20.5197 21.7071 20.7072C21.5196 20.8947 21.2652 21.0001 21 21.0001H3C2.73478 21.0001 2.48043 20.8947 2.29289 20.7072C2.10536 20.5197 2 20.2653 2 20.0001V4.0001ZM7 8.0001H17V11.0001H15V10.0001H13V14.0001H14.5V16.0001H9.5V14.0001H11V10.0001H9V11.0001H7V8.0001Z" fill="#9D9D9D"/>
</g>
<defs>
<clipPath id="clip0_318_49906">
<rect width="24" height="24" fill="white"/>
</clipPath>
</defs>
</svg>
