<svg width="32" height="32" viewBox="0 0 32 32" fill="none" xmlns="http://www.w3.org/2000/svg">
<path d="M27.3507 11.9053L27.0227 12.66C26.9714 12.7829 26.885 12.8879 26.7742 12.9617C26.6634 13.0355 26.5332 13.0749 26.4 13.0749C26.2669 13.0749 26.1367 13.0355 26.0259 12.9617C25.9151 12.8879 25.8286 12.7829 25.7774 12.66L25.4494 11.9053C24.8727 10.5703 23.8165 9.4999 22.4894 8.90534L21.4774 8.45334C21.3546 8.39687 21.2506 8.30637 21.1777 8.19258C21.1048 8.07879 21.066 7.94649 21.066 7.81134C21.066 7.6762 21.1048 7.54389 21.1777 7.43011C21.2506 7.31632 21.3546 7.22582 21.4774 7.16934L22.4334 6.74401C23.7939 6.13252 24.8681 5.02252 25.4347 3.64268L25.772 2.82801C25.8216 2.70182 25.908 2.59347 26.02 2.51711C26.132 2.44075 26.2645 2.3999 26.4 2.3999C26.5356 2.3999 26.668 2.44075 26.78 2.51711C26.8921 2.59347 26.9785 2.70182 27.028 2.82801L27.3654 3.64134C27.9313 5.02145 29.0051 6.13192 30.3654 6.74401L31.3227 7.17068C31.4451 7.22732 31.5487 7.3178 31.6214 7.43144C31.694 7.54509 31.7326 7.67714 31.7326 7.81201C31.7326 7.94688 31.694 8.07894 31.6214 8.19258C31.5487 8.30622 31.4451 8.39671 31.3227 8.45334L30.3094 8.90401C28.9824 9.49917 27.9268 10.57 27.3507 11.9053ZM3.72269 5.06801H18.4V7.73468H5.06669V26.4013L17.456 14.0093C17.5799 13.8854 17.7269 13.787 17.8888 13.7199C18.0506 13.6528 18.2241 13.6183 18.3994 13.6183C18.5746 13.6183 18.7481 13.6528 18.9099 13.7199C19.0718 13.787 19.2189 13.8854 19.3427 14.0093L26.4 21.0813V15.7347H29.0667V27.744C29.0643 28.0942 28.9242 28.4293 28.6767 28.6771C28.4292 28.9248 28.0942 29.0652 27.744 29.068H3.72269C3.37178 29.0677 3.03535 28.928 2.78734 28.6798C2.53933 28.4315 2.40002 28.0949 2.40002 27.744V6.39201C2.40246 6.04185 2.54256 5.7067 2.79004 5.45897C3.03753 5.21123 3.37253 5.0708 3.72269 5.06801ZM10.4 15.7347C9.69278 15.7347 9.0145 15.4537 8.51441 14.9536C8.01431 14.4535 7.73336 13.7753 7.73336 13.068C7.73336 12.3608 8.01431 11.6825 8.51441 11.1824C9.0145 10.6823 9.69278 10.4013 10.4 10.4013C11.1073 10.4013 11.7855 10.6823 12.2856 11.1824C12.7857 11.6825 13.0667 12.3608 13.0667 13.068C13.0667 13.7753 12.7857 14.4535 12.2856 14.9536C11.7855 15.4537 11.1073 15.7347 10.4 15.7347Z" fill="#7B7B7B"/>
</svg>
